<svg xmlns="http://www.w3.org/2000/svg" viewBox="0 0 566.68 872.32"><defs><style>.cls-1{fill:#020002;}.cls-2{fill:#fff;}.cls-3{fill:#9a2ba0;}.cls-4{fill:#331335;}.cls-5{fill:#b755bc;}.cls-6{fill:#632766;}</style></defs><title>Pin</title><g id="Layer_2" data-name="Layer 2"><g id="Layer_1-2" data-name="Layer 1"><path class="cls-1" d="M493.4,425.28H73.27a17.74,17.74,0,0,0-15.8,25.8L267.54,862.58a17.74,17.74,0,0,0,31.59,0L509.2,451.08A17.74,17.74,0,0,0,493.4,425.28Zm-210.07,278L190.19,542H376.47Z"/><path class="cls-1" d="M283.33.07C126.85.07,0,126.93,0,283.41S126.85,566.74,283.33,566.74,566.67,439.89,566.67,283.41,439.81.07,283.33.07Zm0,387.69A104.35,104.35,0,1,1,387.69,283.41,104.35,104.35,0,0,1,283.33,387.76Z"/><path class="cls-2" d="M216.91,342.69"/><polygon class="cls-3" points="283.33 0.07 283.33 158.69 256.44 158.69 283.33 0.07"/><polygon class="cls-4" points="256.44 158.69 269.89 179.91 283.33 158.69 256.44 158.69"/><path class="cls-5" d="M283.33,158.69l13.45,21.23s-14.36-1.56-26.89,0-1.34.24-1.34.24Z"/><polygon class="cls-6" points="296.78 179.91 283.33 0.07 283.33 158.69 296.78 179.91"/><polygon class="cls-4" points="296.78 179.91 351.84 79.38 289.26 79.38 296.78 179.91"/><polygon class="cls-6" points="289.26 79.38 351.84 8.41 351.84 79.38 289.26 79.38"/><path class="cls-3" d="M283.33.07l5.93,79.31,62.57-71S314.25-.92,283.33.07Z"/><polygon class="cls-3" points="296.78 179.91 351.84 158.69 351.84 79.38 296.78 179.91"/><path class="cls-4" d="M351.84,158.69v46s-23-21.21-55.06-24.77Z"/><path class="cls-3" d="M351.84,79.38,434.76,43.9S398.22,16,351.84,8.41Z"/><polygon class="cls-6" points="351.84 79.38 434.76 79.38 434.76 43.9 351.84 79.38"/><polygon class="cls-3" points="351.84 79.38 490.38 89.99 421.11 122.42 351.84 79.38"/><polygon class="cls-5" points="351.84 79.38 479.93 79.38 490.38 89.99 351.84 79.38"/><path class="cls-4" d="M434.76,79.38V43.9s26,17.18,45.16,35.48Z"/><polygon class="cls-5" points="351.84 158.69 421.11 122.42 351.84 79.38 351.84 158.69"/><polygon class="cls-4" points="351.84 158.69 393.3 196.93 421.11 122.42 351.84 158.69"/><polygon class="cls-3" points="351.84 158.69 393.3 196.93 351.84 204.68 351.84 158.69"/><polygon class="cls-6" points="393.3 196.93 490.38 89.99 421.11 122.42 393.3 196.93"/><path class="cls-6" d="M393.3,196.93l-6.83,70.5s-4-36.05-34.64-62.75Z"/><path class="cls-5" d="M393.3,196.93l128.06-67.28s-18.86-32.16-31-39.65Z"/><polygon class="cls-3" points="393.3 196.93 479.93 217.74 479.93 151.42 393.3 196.93"/><polygon class="cls-4" points="479.93 217.74 386.47 267.43 393.3 196.93 479.93 217.74"/><polygon class="cls-6" points="479.93 217.74 547.86 181.69 479.93 151.42 479.93 217.74"/><path class="cls-4" d="M547.85,181.69l-67.93-30.27,41.43-21.77A252.9,252.9,0,0,1,547.85,181.69Z"/><polygon class="cls-6" points="386.47 267.43 479.93 303.71 479.93 217.74 386.47 267.43"/><path class="cls-3" d="M479.92,217.74H559s-7.67-29.9-11.16-36Z"/><path class="cls-5" d="M479.92,217.74l85.85,43s-2-24.46-6.76-43Z"/><path class="cls-5" d="M479.92,217.74l85.85,87.35s2-26.46,0-44.36Z"/><polygon class="cls-4" points="479.93 217.74 565.77 305.09 479.93 303.71 479.93 217.74"/><path class="cls-3" d="M479.92,303.71l67.93,81.42s15.63-39.36,17.92-80Z"/><path class="cls-3" d="M479.92,303.71l-93.45,28.72L386.7,298s2-16.7-.22-30.57Z"/><polygon class="cls-4" points="479.93 303.71 386.47 383.44 386.47 332.43 479.93 303.71"/><polygon class="cls-6" points="479.93 303.71 489.29 408.51 547.86 385.13 479.93 303.71"/><polygon class="cls-6" points="479.93 303.71 415.9 408.51 489.29 408.51 479.93 303.71"/><path class="cls-4" d="M489.29,408.51,519.47,440s15.34-22.2,28.39-54.91Z"/><polygon class="cls-4" points="488.34 408.51 479.93 508.42 503.34 460.98 488.34 408.51"/><polygon class="cls-3" points="488.34 408.51 489.29 408.51 519.47 440.04 504.2 461.19 503.34 460.98 488.34 408.51"/><polygon class="cls-5" points="479.93 303.71 415.9 408.51 386.47 383.44 479.93 303.71"/><polygon class="cls-3" points="415.9 408.51 479.93 508.42 489.29 408.51 415.9 408.51"/><path class="cls-6" d="M386.47,383.44,386.7,298s-4.28,37.76-34.86,64.13Z"/><polygon class="cls-4" points="386.47 383.44 386.69 440.04 415.9 408.51 386.47 383.44"/><polygon class="cls-3" points="386.47 383.44 324.31 447.86 351.84 362.13 386.47 383.44"/><polygon class="cls-6" points="386.47 383.44 386.69 440.04 324.31 447.86 386.47 383.44"/><polygon class="cls-5" points="386.69 440.04 479.93 508.42 415.9 408.51 386.69 440.04"/><polygon class="cls-6" points="386.69 440.04 389.92 508.42 479.93 508.42 386.69 440.04"/><polygon class="cls-4" points="324.31 447.86 389.92 508.42 386.69 440.04 324.31 447.86"/><polygon class="cls-4" points="389.92 508.42 452.6 561.96 479.93 508.42 389.92 508.42"/><polygon class="cls-3" points="389.92 508.42 369.27 553.47 452.6 561.96 389.92 508.42"/><polygon class="cls-6" points="369.27 553.47 452.6 561.96 433.2 599.96 369.27 553.47"/><polygon class="cls-4" points="369.27 553.47 410.93 643.58 433.2 599.96 369.27 553.47"/><polygon class="cls-3" points="369.27 553.47 343.82 598.52 410.93 643.58 369.27 553.47"/><polygon class="cls-5" points="343.82 598.52 386.69 691.05 410.93 643.58 343.82 598.52"/><polygon class="cls-6" points="314.81 648.76 386.69 691.05 343.82 598.52 314.81 648.76"/><path class="cls-5" d="M283.33,387.76l41,60.09,27.53-85.73S322.52,386,283.33,387.76Z"/><polygon class="cls-6" points="324.31 447.86 283.33 498.05 389.92 508.42 324.31 447.86"/><polygon class="cls-4" points="283.33 387.76 283.33 498.05 324.31 447.86 283.33 387.76"/><polygon class="cls-3" points="283.33 498.05 369.27 553.47 389.92 508.42 283.33 498.05"/><path class="cls-6" d="M283.33,498v68.7s44.13.42,85.93-13.27Z"/><polygon class="cls-4" points="314.81 648.76 355.5 752.16 386.69 691.05 314.81 648.76"/><polygon class="cls-3" points="314.81 648.76 283.33 703.28 355.5 752.16 314.81 648.76"/><polygon class="cls-6" points="355.5 752.16 283.33 804.12 283.33 703.28 355.5 752.16"/><polygon class="cls-4" points="355.5 752.16 317.58 826.43 283.33 804.12 355.5 752.16"/><path class="cls-5" d="M283.33,804.12v68.14a15.21,15.21,0,0,0,15.08-9.15l19.17-36.67Z"/><polygon class="cls-5" points="283.33 387.76 216.91 458.46 283.33 498.05 283.33 387.76"/><polygon class="cls-3" points="216.91 458.46 283.33 566.74 283.33 498.05 216.91 458.46"/><path class="cls-4" d="M216.91,458.46l-19.51,95s42.09,14.45,85.93,13.27Z"/><path class="cls-6" d="M216.91,458.46l-18.24-114s25.08,41.18,84.66,43.34Z"/><polygon class="cls-3" points="216.91 458.46 148 532.39 197.4 553.47 216.91 458.46"/><polygon class="cls-5" points="216.91 458.46 148 440.04 198.67 344.42 216.91 458.46"/><polygon class="cls-6" points="148 440.04 148 532.39 216.91 458.46 148 440.04"/><polygon class="cls-3" points="148 440.04 133.72 340.72 198.67 344.42 148 440.04"/><polygon class="cls-3" points="148 440.04 88.89 512.64 148 532.39 148 440.04"/><polygon class="cls-6" points="148 440.04 88.89 401.44 133.72 340.72 148 440.04"/><polygon class="cls-4" points="88.89 401.44 88.89 512.64 148 440.04 88.89 401.44"/><polygon class="cls-3" points="88.89 401.44 61.24 458.46 88.89 512.64 88.89 401.44"/><polygon class="cls-6" points="197.4 553.47 133.72 600.45 88.89 512.64 143.15 530.77 197.4 553.47"/><path class="cls-6" d="M133.72,340.72,179,283.41s.18,32.74,19.69,61Z"/><path class="cls-4" d="M88.89,401.44H25.69a212.57,212.57,0,0,0,35.55,57Z"/><path class="cls-6" d="M88.89,401.44l-82.31-57s7.32,34.68,19.1,57Z"/><polygon class="cls-3" points="88.89 401.44 75.07 340.72 6.59 344.42 88.89 401.44"/><polygon class="cls-5" points="75.07 340.72 133.72 340.72 88.89 401.44 75.07 340.72"/><path class="cls-3" d="M75.07,340.72,1.62,313.91s1.56,13.77,5,30.51Z"/><polygon class="cls-4" points="75.07 340.72 178.98 283.41 133.72 340.72 75.07 340.72"/><polygon class="cls-4" points="75.07 340.72 75.07 312.06 35.81 326.39 75.07 340.72"/><polygon class="cls-5" points="75.07 312.06 118.45 316.79 75.07 340.72 75.07 312.06"/><polygon class="cls-3" points="75.07 312.06 178.98 283.41 118.45 316.79 75.07 312.06"/><polygon class="cls-4" points="75.07 312.06 1.63 313.92 35.81 326.39 75.07 312.06"/><polygon class="cls-5" points="1.63 313.92 55.44 279.69 75.07 312.06 1.63 313.92"/><polygon class="cls-4" points="55.44 279.69 104.39 303.98 75.07 312.06 55.44 279.69"/><polygon class="cls-3" points="55.44 279.69 104.39 279.69 104.39 303.98 55.44 279.69"/><polygon class="cls-6" points="104.39 279.69 178.98 283.41 104.39 303.98 104.39 279.69"/><polygon class="cls-6" points="104.39 279.69 55.44 250.22 55.44 279.69 104.39 279.69"/><polygon class="cls-3" points="55.44 250.22 1.63 313.92 55.44 279.69 55.44 250.22"/><path class="cls-6" d="M55.44,250.22.59,265s-1.73,27.06,1,49Z"/><path class="cls-4" d="M104.39,279.69l80-29.47s-5.72,16.93-5.39,33.19Z"/><polygon class="cls-3" points="55.44 250.22 184.37 250.22 104.39 279.69 55.44 250.22"/><path class="cls-4" d="M55.44,250.22,11.09,204.68S1.43,240,.59,265Z"/><path class="cls-6" d="M55.44,250.22,47.74,126s-20.41,25.57-36.66,78.72Z"/><polygon class="cls-6" points="55.44 250.22 144.38 223.49 144.38 250.22 55.44 250.22"/><polygon class="cls-3" points="144.38 223.49 47.74 125.97 55.44 250.22 144.38 223.49"/><polygon class="cls-5" points="144.38 223.49 184.37 250.22 144.38 250.22 144.38 223.49"/><polygon class="cls-4" points="197.4 553.47 166.2 664.07 133.72 600.45 197.4 553.47"/><path class="cls-6" d="M144.38,223.49,127,47.06S78.61,77.74,47.74,126Z"/><path class="cls-3" d="M144.38,223.49l57.86-5.75a111.38,111.38,0,0,0-17.87,32.48Z"/><polygon class="cls-5" points="144.38 223.49 202.24 173.03 202.24 217.74 144.38 223.49"/><polygon class="cls-6" points="202.24 173.03 139.42 173.03 144.38 223.49 202.24 173.03"/><path class="cls-3" d="M202.24,173,223,198.26s-9.8,6.33-20.75,19.48-.95,0-.95,0Z"/><polygon class="cls-5" points="139.42 173.03 173.31 143.46 202.24 173.03 139.42 173.03"/><path class="cls-5" d="M202.24,173l54.21,9.52s-18.34,4.35-33.45,15.71Z"/><polygon class="cls-3" points="202.24 173.03 256.44 158.69 256.44 182.55 202.24 173.03"/><path class="cls-6" d="M256.44,182.55s10.31-2.51,12.11-2.4l.78-1.13-12.88-20.34Z"/><polygon class="cls-3" points="202.24 173.03 200.46 143.46 173.31 143.46 202.24 173.03"/><polygon class="cls-6" points="200.46 143.46 229.34 165.86 202.24 173.03 200.46 143.46"/><polygon class="cls-5" points="229.34 165.86 200.46 143.46 256.44 158.69 229.34 165.86"/><polygon class="cls-3" points="173.31 143.46 135.7 135.28 139.42 173.03 173.31 143.46"/><polygon class="cls-4" points="173.31 143.46 127.02 47.06 135.7 135.28 173.31 143.46"/><polygon class="cls-4" points="200.46 143.46 127.02 47.06 173.31 143.46 200.46 143.46"/><polygon class="cls-6" points="200.46 143.46 260.41 135.28 256.44 158.69 200.46 143.46"/><path class="cls-3" d="M200.46,143.46l1.78-131.61S163.57,22.28,127,47.06Z"/><path class="cls-6" d="M200.46,143.46,229.34,5.21s-15.83,3.05-27.1,6.64Z"/><path class="cls-3" d="M200.46,143.46,283.33.07s-31.79-.26-54,5.14Z"/><polygon class="cls-4" points="200.46 143.46 269.33 79.38 260.41 135.28 200.46 143.46"/><polygon class="cls-6" points="200.46 143.46 269.33 79.38 283.33 0.07 200.46 143.46"/><polygon class="cls-3" points="166.2 664.07 228.77 608.77 197.4 553.47 166.2 664.07"/><polygon class="cls-5" points="166.2 664.07 248.86 643.58 228.77 608.77 166.2 664.07"/><polygon class="cls-6" points="166.2 664.07 283.33 703.28 248.86 643.58 166.2 664.07"/><polygon class="cls-4" points="166.2 664.07 198.67 727.68 283.33 703.28 166.2 664.07"/><polygon class="cls-3" points="198.67 727.68 283.33 703.28 283.33 804.12 198.67 727.68"/><polygon class="cls-5" points="283.33 804.12 241 810.61 198.67 727.68 283.33 804.12"/><path class="cls-4" d="M283.33,804.12,241,810.61l26.53,52s5.3,10.69,15.8,9.67Z"/></g></g></svg>